<mxfile host="app.diagrams.net" modified="2024-02-24T06:22:29.116Z" agent="Mozilla/5.0 (Windows NT 10.0; Win64; x64) AppleWebKit/537.36 (KHTML, like Gecko) Chrome/121.0.0.0 Safari/537.36" version="23.1.6" etag="qdyQE1yby1VwnYKQVpkR" type="github">
  <diagram name="Page-1" id="VTakrA-e9sETtWK7tvPq">
    <mxGraphModel>
      <root>
        <mxCell id="0" />
        <mxCell id="1" parent="0" />
      </root>
    </mxGraphModel>
  </diagram>
</mxfile>
